<?xml version="1.0" encoding="UTF-8" standalone="no"?>
<!DOCTYPE svg PUBLIC "-//W3C//DTD SVG 1.1//EN" "http://www.w3.org/Graphics/SVG/1.1/DTD/svg11.dtd">
<svg version="1.1" xmlns="http://www.w3.org/2000/svg" xmlns:xlink="http://www.w3.org/1999/xlink" preserveAspectRatio="xMidYMid meet" viewBox="0 0 55 55" width="45" height="45"><defs><path d="" id="afE5Z2pjF"></path><path d="" id="dXWdkh5vB"></path><path d="" id="cFDrn9EuK"></path><path d="M50.52 7.19C53.09 5.45 53.09 3.64 50.52 1.75C46.59 1.75 44.36 1.75 43.83 1.75C43.3 1.75 42.43 2.47 41.22 3.9L38.84 9.01L6.42 9.01" id="cGqGe2rXD"></path><path d="M36.57 41.43C42.09 38.41 43.04 34.82 39.41 30.66L36.57 28.17L45.64 7.19L50.52 7.19" id="hqMDjnFKr"></path><path d="M5.85 36.78C3.58 38.22 3.58 39.77 5.85 41.43L36.57 41.43" id="ahbbAir84"></path><path d="M35.33 33.16C37.07 34.52 37.07 35.73 35.33 36.78L5.85 36.78" id="a4qYoRlOAF"></path><path d="M2.22 26.35C1.69 27.56 2.33 28.62 4.15 29.53L35.33 33.16" id="a8iJ8PyaQZ"></path><path d="M6.42 9.01C4.15 8.55 2.69 9.38 2.04 11.5L2.22 26.35" id="bAoGRSDVe"></path><path d="M45.53 48.74C45.53 51.34 43.47 53.45 40.94 53.45C38.41 53.45 36.35 51.34 36.35 48.74C36.35 46.15 38.41 44.04 40.94 44.04C43.47 44.04 45.53 46.15 45.53 48.74Z" id="a2XbmWEaj1"></path><path d="M14.3 48.74C14.3 51.34 12.24 53.45 9.7 53.45C7.17 53.45 5.11 51.34 5.11 48.74C5.11 46.15 7.17 44.04 9.7 44.04C12.24 44.04 14.3 46.15 14.3 48.74Z" id="dZHv0VcSe"></path><path d="M5.4 40.98L6.87 41.21L8.34 41.09L9.82 40.98L11.29 40.98L12.88 40.98L14.35 40.98L15.83 40.98L17.3 40.98L18.77 40.98L20.25 40.98L21.72 40.98L23.2 40.98L24.67 40.98L26.14 41.09L27.62 41.21L29.09 41.21L30.57 41.09L32.15 41.09L33.74 41.09L35.33 40.98L36.8 40.64L38.16 40.07L39.07 38.94L39.98 37.8L40.77 36.56L41 35.08L40.32 33.84L39.86 32.48L38.96 31.34L37.93 30.32L36.69 29.53L35.67 28.51L35.89 27.03L36.69 25.79L37.37 24.54L37.82 23.18L38.28 21.82L38.84 20.46L39.52 19.21L40.09 17.85L40.66 16.49L41.34 15.24L42.02 13.99L42.58 12.63L42.81 11.16L41.79 10.14L40.66 9.23L39.18 9.01L37.71 9.35L36.23 9.35L34.76 9.46L33.29 9.57L31.81 9.57L30.34 9.57L28.86 9.57L27.39 9.57L25.92 9.57L24.44 9.57L22.97 9.57L21.5 9.69L20.02 9.69L18.55 9.69L17.07 9.69L15.6 9.69L14.13 9.57L12.65 9.46L11.18 9.46L9.7 9.46L8.23 9.46L6.76 9.35L5.28 9.35L3.81 9.35L2.79 10.37L1.88 11.5L1.65 12.97L2.11 14.45L2.22 15.92L2.22 17.4L2.22 18.87L2.33 20.34L2.56 21.82L2.33 23.29L2.22 24.77L2.22 26.24L2.22 27.71L3.24 28.73L4.6 29.19L6.08 29.53L7.55 29.64L9.02 29.87L10.5 29.98L11.97 29.98L13.45 30.09L14.92 30.43L16.39 30.66L17.87 30.77L19.34 31L20.81 31L22.29 31.11L23.76 31.23L25.24 31.45L26.71 31.68L28.18 31.91L29.66 32.02L31.13 32.25L32.61 32.25L34.08 32.36L35.44 32.82L36.35 33.95L36.8 35.31L36.12 36.56L34.87 37.24L33.4 37.35L31.93 37.46L30.45 37.35L28.98 37.24L27.5 37.24L26.03 37.12L24.56 37.12L23.08 37.12L21.61 37.24L20.13 37.24L18.66 37.24L17.19 37.35L15.71 37.35L14.24 37.35L12.77 37.24L11.29 37.24L9.82 37.01L8.34 37.01L6.87 37.01L5.51 37.46L4.6 38.71L5.17 37.35L4.49 38.6L4.83 40.07L5.96 40.98" id="h1flfHDE9T"></path><path d="M6.42 37.12L5.17 37.8L4.49 39.16L5.28 40.41" id="c11epU4eVZ"></path><path d="M11.52 40.41L10.27 41.09L8.8 41.21L7.32 41.32L5.85 41.32L4.94 40.18L6.19 40.87L7.66 40.53L9.02 40.07L10.5 40.07L11.74 40.75" id="ceMRP3hNv"></path><path d="M11.63 37.01L13.11 37.12L14.58 37.01L16.05 36.9L17.53 36.9L19 36.9L20.47 36.9L21.95 36.9L23.42 37.12L24.9 37.24L26.37 37.12L27.84 37.01L29.32 37.01L30.79 36.9L32.27 36.9L33.74 36.9L35.21 36.9L36.57 37.35L37.48 38.48L37.59 39.96L36.8 41.21L35.33 41.55L33.85 41.43L32.38 40.98L30.91 40.64L29.43 40.41L27.84 40.18L26.26 40.07L24.78 39.84L23.31 39.62L21.84 39.39L20.36 39.16L18.77 39.05L17.19 38.82L15.6 38.71L14.24 38.26L12.88 37.8L11.52 37.35L10.04 37.24L8.46 37.24L6.98 37.01L5.51 37.01L5.4 38.48L6.76 39.05L8.23 39.39L9.7 39.39L11.4 39.28L12.88 39.05L14.47 38.71L15.94 38.6L17.41 38.26L18.89 37.92" id="a3EFWn3iqh"></path><path d="M40.32 35.31L40.88 33.95L40.54 32.48L39.52 31.45L38.5 30.43L37.37 29.53L36.35 28.51L36.46 27.03L37.37 25.9L37.82 24.54L38.28 23.18L38.73 21.82L39.41 20.57L39.98 19.21L40.54 17.85L41.11 16.49L41.79 15.24L42.36 13.88L42.92 12.52L43.38 11.16L42.47 10.03L41.22 10.71L40.32 12.07L39.52 13.43L38.62 14.56L37.71 15.92L37.03 17.17L36.46 18.64L36.01 20L35.55 21.36L35.1 22.84L34.87 24.43L34.53 25.9L34.42 27.37L34.19 28.85L33.17 29.87L31.7 29.98L30.23 29.87L28.75 29.75L27.28 29.75L25.69 29.64L24.22 29.64L22.74 29.64L21.61 30.55L22.52 31.68L23.99 31.79L25.46 31.79L26.94 31.79L28.41 31.91L29.89 32.14L31.36 32.36L32.83 32.48L34.31 32.82L35.78 33.04L37.03 33.72L38.16 34.63L39.64 35.08" id="a1ZUklyVFN"></path><path d="M6.64 24.2L5.06 24.43L3.58 24.2L2.56 23.18L2.22 21.7L2.56 20.23L3.01 18.87L3.81 17.28L4.83 16.15L6.08 15.02L7.32 14.11L8.57 13.2L9.82 12.41L10.84 11.39L11.86 10.37L13.22 9.69L14.58 9.23L16.05 8.89L17.53 9.01L19 9.12L20.47 9.23L21.95 9.23L23.42 9.23L24.9 9.23L26.48 9.23L27.96 9.23L29.43 9.23L30.91 9.23L32.38 9.23L33.85 9.23L35.33 9.23L36.8 9.23L38.28 9.23L39.64 8.67L40.09 7.31L40.66 5.94L41.45 4.7L42.36 3.56L43.38 2.54L44.74 2.09L46.21 1.86L47.69 1.86L49.16 2.09L50.63 2.09L51.54 3.22L51.88 4.7L51.31 6.06L50.07 6.85L48.59 6.97L47.12 6.85L45.64 6.74L44.51 7.65L44.17 9.12L43.72 10.48L43.04 11.73L41.79 12.52L40.43 12.97L38.96 13.31L37.14 13.54L35.44 13.65L33.85 13.88L32.27 14.11L30.79 14.33L28.98 14.68L27.16 14.9L25.69 15.13L24.1 15.47L22.63 16.04L21.27 16.6L19.91 17.28L18.43 18.19L16.96 18.76L15.37 19.32L14.13 20L12.77 20.46L11.52 21.14L10.04 21.93L8.68 22.61L7.32 23.06L6.19 23.97" id="a15lmWCRN4"></path><path d="M37.03 39.28L38.5 39.62L39.75 38.82L40.32 37.46L41 36.22L41.11 34.74L40.2 33.61L39.07 34.52L38.5 35.88L38.16 37.35L39.52 37.92L40.77 37.24L41.11 35.76" id="a1Zm2HTYaM"></path><path d="M42.36 10.37L43.49 9.46L44.4 8.33L45.3 7.19L45.19 5.72L43.94 6.4L44.74 7.65L44.28 9.01L43.49 10.25" id="bg1nYUBEh"></path><path d="M40.97 5.34L41.46 3.99L42.38 2.86L43.52 1.94" id="a68MmDUKf"></path><path d="M51.53 3.07L52.16 4.42L51.6 5.76" id="a1c1VGCtcr"></path><path d="M1.99 11.57L1.57 12.99L1.64 14.41L1.64 15.9L1.64 17.38L1.64 18.87L1.64 20.29L1.64 21.78L1.64 23.27L1.64 24.68L1.64 26.17L1.64 27.66L2.42 28.86L3.77 29.43L5.11 28.93" id="e1anc51jQX"></path></defs><g><g><g><g><use xlink:href="#afE5Z2pjF" opacity="1" fill-opacity="0" stroke="#000000" stroke-width="1" stroke-opacity="1"></use></g></g><g><g><use xlink:href="#dXWdkh5vB" opacity="1" fill-opacity="0" stroke="#000000" stroke-width="1" stroke-opacity="1"></use></g></g><g><g><use xlink:href="#cFDrn9EuK" opacity="1" fill-opacity="0" stroke="#000000" stroke-width="1" stroke-opacity="1"></use></g></g><g><g><use xlink:href="#cGqGe2rXD" opacity="1" fill-opacity="0" stroke="#d6d6d6" stroke-width="1" stroke-opacity="1"></use></g></g><g><g><use xlink:href="#hqMDjnFKr" opacity="1" fill-opacity="0" stroke="#d6d6d6" stroke-width="1" stroke-opacity="1"></use></g></g><g><use xlink:href="#ahbbAir84" opacity="1" fill="#d6d6d6" fill-opacity="1"></use><g><use xlink:href="#ahbbAir84" opacity="1" fill-opacity="0" stroke="#d6d6d6" stroke-width="1" stroke-opacity="1"></use></g></g><g><g><use xlink:href="#a4qYoRlOAF" opacity="1" fill-opacity="0" stroke="#d6d6d6" stroke-width="1" stroke-opacity="1"></use></g></g><g><use xlink:href="#a8iJ8PyaQZ" opacity="1" fill="#b15eb1" fill-opacity="1"></use><g><use xlink:href="#a8iJ8PyaQZ" opacity="1" fill-opacity="0" stroke="#d6d6d6" stroke-width="1" stroke-opacity="1"></use></g></g><g><use xlink:href="#bAoGRSDVe" opacity="1" fill="#7f6a8d" fill-opacity="1"></use><g><use xlink:href="#bAoGRSDVe" opacity="1" fill-opacity="0" stroke="#d6d6d6" stroke-width="1" stroke-opacity="1"></use></g></g><g><use xlink:href="#a2XbmWEaj1" opacity="1" fill="#d6d6d6" fill-opacity="1"></use><g><use xlink:href="#a2XbmWEaj1" opacity="1" fill-opacity="0" stroke="#d6d6d6" stroke-width="1" stroke-opacity="1"></use></g></g><g><use xlink:href="#dZHv0VcSe" opacity="1" fill="#d6d6d6" fill-opacity="1"></use><g><use xlink:href="#dZHv0VcSe" opacity="1" fill-opacity="0" stroke="#d6d6d6" stroke-width="1" stroke-opacity="1"></use></g></g><g><use xlink:href="#h1flfHDE9T" opacity="1" fill="#d6d6d6" fill-opacity="1"></use><g><use xlink:href="#h1flfHDE9T" opacity="1" fill-opacity="0" stroke="#d6d6d6" stroke-width="1" stroke-opacity="1"></use></g></g><g><use xlink:href="#c11epU4eVZ" opacity="1" fill="#d6d6d6" fill-opacity="1"></use><g><use xlink:href="#c11epU4eVZ" opacity="1" fill-opacity="0" stroke="#d6d6d6" stroke-width="1" stroke-opacity="1"></use></g></g><g><use xlink:href="#ceMRP3hNv" opacity="1" fill="#d6d6d6" fill-opacity="1"></use><g><use xlink:href="#ceMRP3hNv" opacity="1" fill-opacity="0" stroke="#d6d6d6" stroke-width="1" stroke-opacity="1"></use></g></g><g><use xlink:href="#a3EFWn3iqh" opacity="1" fill="#d6d6d6" fill-opacity="1"></use><g><use xlink:href="#a3EFWn3iqh" opacity="1" fill-opacity="0" stroke="#d6d6d6" stroke-width="1" stroke-opacity="1"></use></g></g><g><use xlink:href="#a1ZUklyVFN" opacity="1" fill="#d6d6d6" fill-opacity="1"></use><g><use xlink:href="#a1ZUklyVFN" opacity="1" fill-opacity="0" stroke="#d6d6d6" stroke-width="1" stroke-opacity="1"></use></g></g><g><use xlink:href="#a15lmWCRN4" opacity="1" fill="#d6d6d6" fill-opacity="1"></use><g><use xlink:href="#a15lmWCRN4" opacity="1" fill-opacity="0" stroke="#d6d6d6" stroke-width="1" stroke-opacity="1"></use></g></g><g><g><use xlink:href="#a1Zm2HTYaM" opacity="1" fill-opacity="0" stroke="#d6d6d6" stroke-width="1" stroke-opacity="1"></use></g></g><g><g><use xlink:href="#bg1nYUBEh" opacity="1" fill-opacity="0" stroke="#d6d6d6" stroke-width="1" stroke-opacity="1"></use></g></g><g><use xlink:href="#a68MmDUKf" opacity="1" fill="#d6d6d6" fill-opacity="1"></use><g><use xlink:href="#a68MmDUKf" opacity="1" fill-opacity="0" stroke="#d6d6d6" stroke-width="1" stroke-opacity="1"></use></g></g><g><use xlink:href="#a1c1VGCtcr" opacity="1" fill="#d6d6d6" fill-opacity="1"></use><g><use xlink:href="#a1c1VGCtcr" opacity="1" fill-opacity="0" stroke="#d6d6d6" stroke-width="1" stroke-opacity="1"></use></g></g><g><use xlink:href="#e1anc51jQX" opacity="1" fill="#d6d6d6" fill-opacity="1"></use><g><use xlink:href="#e1anc51jQX" opacity="1" fill-opacity="0" stroke="#d6d6d6" stroke-width="1" stroke-opacity="1"></use></g></g></g></g></svg>